PathFileType	3	(X/Y/Z)	D:\minhoCalibration\240510\subject5_KPNP\preferred\preferred16.trc
DataRate	CameraRate	NumFrames	NumMarkers	Units	OrigDataRate	OrigDataStartFrame	OrigNumFrames
200.0	200.0	21	10	mm	200.0	202	149	
Frame#	Time	Left_Ankle_Outer1			Left_Ankle_Inner1			Left_Knee_Outer1			Left_Knee_Inner1			Left_Wrist1			Right_Wrist1			Right_Knee_Inner1			Right_Knee_Outer1			Right_Ankle_Inner1			Right_Ankle_Outer1			
		X1	Y1	Z1	X2	Y2	Z2	X3	Y3	Z3	X4	Y4	Z4	X5	Y5	Z5	X6	Y6	Z6	X7	Y7	Z7	X8	Y8	Z8	X9	Y9	Z9	X10	Y10	Z10	
202	1	107.31749	73.494492	-599.88385	55.906635	88.815292	-606.56458	175.69078	521.57971	-433.24365	83.938675	512.53381	-455.6456	297.37033	982.89948	-584.81494	30.103159	1037.5968	-775.34821	-136.98573	526.25061	-683.06006	-196.26186	577.23102	-754.62225	127.63258	277.47662	-970.05237	99.426353	344.83371	-1034.5593
203	1.005	107.53724	73.58522	-599.95374	56.680401	88.535378	-606.06488	178.11392	521.29144	-433.36182	86.336624	512.50757	-454.26764	299.23978	982.95673	-584.50024	27.218929	1040.6686	-767.59192	-160.12178	524.88086	-679.62988	-205.02765	585.37756	-739.25256	114.79203	285.48874	-958.53156	85.785011	353.50833	-1022.1362
204	1.01	107.76046	73.696732	-599.9718	56.930401	88.731522	-606.1214	180.65553	521.05475	-433.65768	88.094879	512.10333	-452.94153	300.83728	983.07513	-584.15857	24.18593	1043.8146	-759.40826	-154.53429	539.24792	-650.6676	-216.77928	592.28021	-719.38666	100.98273	293.1369	-946.85229	72.062149	362.42722	-1009.3825
205	1.015	107.98396	73.81852	-600.05609	57.080547	89.103096	-605.9303	183.05934	520.85498	-433.90482	90.403351	512.00293	-452.27814	302.08633	983.10303	-584.34174	21.450563	1047.3215	-751.71906	-178.02737	539.82196	-645.56696	-225.35069	600.76746	-702.18939	87.850044	301.41821	-934.9408	58.214092	371.4718	-996.47357
206	1.02	108.2614	73.922882	-600.02582	57.388084	89.368523	-605.68372	185.61569	520.73834	-434.40579	93.552956	512.74689	-452.39713	303.41251	983.29205	-584.3703	24.258413	1054.6576	-751.17236	-185.63092	547.79456	-629.42981	-234.66226	609.43982	-684.37836	73.650169	309.54828	-923.45654	44.288975	380.78635	-983.41254
207	1.025	108.67074	74.155136	-600.04938	58.144764	89.63562	-605.51031	188.17169	520.625	-434.97775	95.259171	512.29535	-450.04227	304.73334	983.56311	-584.58838	22.243824	1058.3109	-744.01691	-194.47656	556.61163	-610.51489	-243.10454	618.36157	-666.47382	59.615421	318.10855	-911.93347	30.235912	390.55869	-970.41504
208	1.03	109.19473	74.356598	-599.95581	57.47435	90.58654	-605.08087	190.71045	520.61322	-435.72025	97.588013	511.46335	-449.92838	305.96246	983.85638	-585.03137	20.228559	1062.062	-736.81512	-201.45128	565.60907	-593.13586	-252.12738	627.29224	-646.10669	45.64764	327.20789	-900.14374	15.585663	400.34503	-957.22046
209	1.035	109.71921	74.574142	-599.95996	57.957039	89.888443	-604.59534	193.22221	520.6239	-436.51144	99.75827	511.78299	-449.55597	307.0788	984.20691	-585.62616	18.397549	1065.8409	-729.72064	-208.39787	574.75574	-575.01306	-260.3515	636.62195	-626.95038	31.57588	336.58701	-888.66296	0.96706444	410.73117	-944.30066
210	1.04	109.86951	74.589355	-599.80219	59.442829	90.337601	-604.96259	195.629	520.70294	-437.36227	101.8997	512.62115	-447.64301	308.08774	984.55884	-586.4834	10.626815	1066.3865	-715.59741	-215.23282	584.14447	-556.50592	-265.62769	646.85956	-607.78821	17.689331	346.47461	-877.14728	-13.913368	421.37415	-931.31372
211	1.045	110.13287	74.7173	-599.68567	60.6791	91.062859	-605.40314	198.09819	520.82159	-438.30295	104.58728	512.08484	-448.95557	309.00964	984.91504	-587.4967	8.5438604	1070.2035	-708.19983	-221.01854	594.06793	-538.40881	-272.56174	656.44189	-587.72449	3.6068668	356.87106	-865.82928	-28.945749	432.38766	-918.57935
212	1.05	111.03837	75.438744	-599.91797	59.550114	91.234581	-604.24457	200.39639	520.97552	-439.36508	106.53338	512.1925	-447.88992	309.66617	985.11053	-588.9743	7.4105597	1075.1326	-702.93048	-226.52959	603.97168	-520.03943	-277.98483	667.70679	-570.2041	-10.441507	367.64664	-854.41852	-44.028404	443.84448	-905.83661
213	1.055	111.21765	75.797104	-599.88849	60.688686	91.663422	-604.29211	202.63698	521.07159	-440.47464	108.59277	512.4917	-447.38495	310.12173	985.18628	-590.67694	5.0101943	1077.6246	-694.4306	-231.37364	614.40405	-502.00464	-283.13998	678.70465	-550.02875	-24.898176	378.79327	-843.17535	-59.242393	455.76187	-893.25269
214	1.06	111.22857	76.108154	-599.88611	60.21595	92.125832	-603.93604	204.96147	521.25128	-441.77216	110.66031	512.57684	-446.89618	310.52231	985.26392	-592.65094	4.1207871	1082.0785	-687.23199	-235.67448	624.65454	-483.74951	-288.18768	690.17749	-530.15729	-39.413765	390.28687	-831.81	-74.339165	468.06046	-880.44122
215	1.065	110.99427	76.4459	-599.87213	60.266438	92.632118	-603.88818	207.12004	521.44592	-443.20059	112.8109	512.73688	-446.58856	310.78897	985.22229	-594.80029	4.0600753	1081.8784	-673.2132	-239.4864	635.2746	-465.75229	-291.87863	701.90607	-511.93506	-53.882553	401.96771	-820.58813	-89.604935	480.5838	-867.49652
216	1.07	110.09756	76.343742	-599.83606	59.772358	93.24501	-603.48071	209.24968	521.54889	-444.60336	114.67038	512.99237	-446.07675	310.9245	985.13458	-597.10962	3.1224189	1086.5836	-665.42029	-242.87303	645.99274	-447.75766	-295.55569	713.78357	-491.49667	-68.74366	414.04355	-809.05444	-104.79131	493.42307	-854.4151
217	1.075	109.25732	76.594704	-599.88519	58.106491	94.067261	-602.52948	211.24243	521.63062	-446.13297	116.79222	513.24933	-445.93225	310.95023	984.86053	-599.75989	1.9391069	1091.0111	-658.38458	-245.84152	656.8208	-429.81793	-298.20959	725.86066	-472.19748	-83.611046	426.27527	-797.51807	-120.00679	506.57642	-841.20807
218	1.08	109.31686	77.448341	-600.23004	58.692947	93.815025	-602.98315	213.14525	521.66522	-447.77606	119.31174	513.578	-445.46054	310.75351	984.50073	-602.41443	0.58179212	1095.2117	-651.99774	-248.26085	668.12042	-412.06897	-300.4726	738.2851	-452.86288	-98.5784	438.87109	-786.01385	-135.19719	520.06036	-827.88293
219	1.085	108.45316	77.724831	-600.39801	57.517559	94.433746	-602.34906	215.04727	521.71661	-449.44705	121.22043	513.72028	-445.35138	310.5744	984.1499	-605.32306	10.467127	1094.1071	-637.40668	-250.13402	679.31604	-394.29947	-301.651	750.96234	-433.70892	-113.75036	451.84821	-774.38898	-150.11417	533.97144	-814.59351
220	1.09	107.26332	77.910263	-600.50238	56.422211	94.684044	-601.96344	216.63585	521.69135	-451.17197	123.06789	513.63031	-445.0209	309.69958	983.64349	-608.36688	9.5169659	1106.118	-642.97272	-251.17918	690.59644	-376.90375	-302.3808	763.5752	-414.36563	-128.89653	465.0304	-762.75708	-165.22354	548.14471	-801.16858
221	1.095	105.11339	77.643387	-600.2923	55.194382	94.933388	-601.5423	218.12755	521.58612	-452.98553	124.75362	513.64172	-444.75412	308.75485	982.70593	-611.96252	8.4828815	1110.2441	-635.12488	-251.85735	702.03992	-359.47476	-302.35776	776.28882	-395.34311	-144.05875	478.54468	-751.10809	-179.73251	562.94031	-787.88678
222	1.1	103.42937	77.636765	-600.37988	54.352455	95.260323	-601.55853	219.70067	521.57269	-454.81927	126.34523	513.60498	-444.17581	307.47769	981.66919	-615.68854	0.97092378	1113.4434	-620.90601	-251.64845	713.35156	-342.36121	-301.59192	789.23846	-376.24918	-159.5822	492.41187	-739.29187	-195.04179	577.5033	-774.07465
